# xmcd
#
# Track frame offsets: 
#        150
#        10010
#        23432
#        36458
#        48014
#        63347
#        74430
#        90130
#        102665
#        122363
#        135701
#        146655
#        160824
#        173969
#        189572
#        202471
#        214794
#        231248
#        242673
#        253415
#        265952
#        279010
#        289259
#        305526
#        323073
#
# Disc length: 4550 seconds
#
# Revision: 3
# Processed by: cddbd v1.5.2PL0 Copyright (c) Steve Scherf et al.
# Submitted via: ExactAudioCopyFreeDBPlugin 1.0
#
DISCID=6e11c419
DTITLE=John Lee Hooker - Hooker [box set]
DYEAR=2006
DGENRE=Blues
TTITLE0=Dimples
TTITLE1=Every Night
TTITLE2=I'm So Excited
TTITLE3=I Love You Honey
TTITLE4=Tupelo Blues
TTITLE5=I Need Some Money
TTITLE6=Democrat Man
TTITLE7=No More Doggin'
TTITLE8=Gonna Use My Rod
TTITLE9=Whiskey and Wimmen
TTITLE10=No Shoes
TTITLE11=We're All God's Chillun
TTITLE12=I'm Goin' Upstairs
TTITLE13=Teachin' the Blues
TTITLE14=You Lost a Good Man
TTITLE15=Don't Turn Me from Your Door
TTITLE16=When My First Wife Quit Me
TTITLE17=Boom Boom
TTITLE18=She's Mine
TTITLE19=Frisco Blues
TTITLE20=Birmingham Blues
TTITLE21=Big Legs Tight Skirt
TTITLE22=It Serves Me Right to Suffer
TTITLE23=I'm Losin' You
TTITLE24=I Cover the Waterfront
EXTD=
EXTT0=
EXTT1=
EXTT2=
EXTT3=
EXTT4=
EXTT5=
EXTT6=
EXTT7=
EXTT8=
EXTT9=
EXTT10=
EXTT11=
EXTT12=
EXTT13=
EXTT14=
EXTT15=
EXTT16=
EXTT17=
EXTT18=
EXTT19=
EXTT20=
EXTT21=
EXTT22=
EXTT23=
EXTT24=
PLAYORDER=
